<?xml version="1.0" encoding="UTF-8"?>
<!DOCTYPE svg PUBLIC "-//W3C//DTD SVG 1.1//EN" "http://www.w3.org/Graphics/SVG/1.1/DTD/svg11.dtd">
<!-- Creator: CorelDRAW Home & Student X8 -->
<?xml-stylesheet href="dgorra3.css" type="text/css"?>
<svg xmlns="http://www.w3.org/2000/svg" xml:space="preserve" width="100%" height="100%" version="1.1" style="shape-rendering:geometricPrecision; text-rendering:geometricPrecision; image-rendering:optimizeQuality; fill-rule:evenodd; clip-rule:evenodd"
viewBox="0 0 10000 10000"
 xmlns:xlink="http://www.w3.org/1999/xlink">
 <g id="Capa_x0020_1">
  <metadata id="CorelCorpID_0Corel-Layer"/>
  <path class="fil0" d="M2596 7034l-234 703c73,-23 157,-41 256,-54 394,-52 1043,-23 2111,218l5 1c2498,634 2993,-860 3228,-1570l0 0 6 -18c21,-62 40,-133 55,-211 15,-74 28,-157 37,-247 5,-51 9,-103 12,-156l2 -36c-906,-140 -1585,217 -2329,608 -159,83 -320,168 -502,257l-17 8 0 1c-547,267 -1043,429 -1487,504 -430,73 -811,65 -1143,-8zm-647 997l360 -1080c-250,-91 -466,-222 -649,-386 -341,-305 -562,-719 -660,-1180 -98,-455 -77,-958 63,-1449 135,-474 382,-939 741,-1341 589,-659 1478,-961 2407,-961 978,0 2005,336 2770,944 481,382 811,833 1029,1296 249,529 351,1073 364,1544 74,17 149,38 228,62 117,36 239,80 366,132 76,31 112,119 81,195 -31,76 -119,113 -195,81 -117,-48 -230,-88 -340,-122 -48,-15 -96,-28 -143,-40 -4,55 -8,109 -13,161 -10,96 -24,188 -42,275 -18,90 -40,172 -64,246l-6 18 0 0c-263,796 -817,2469 -3586,1766l0 0c-1026,-232 -1638,-261 -2003,-213 -298,40 -393,117 -463,169l-333 218 88 -335zm6124 -2670c-19,-419 -115,-895 -334,-1359 -200,-425 -503,-839 -944,-1190 -712,-565 -1670,-878 -2584,-878 -849,0 -1657,271 -2184,860 -327,366 -552,790 -676,1224 -126,444 -146,897 -58,1305 85,401 275,759 567,1020 184,164 411,292 681,369 322,91 705,111 1149,35 415,-71 883,-224 1405,-478l0 0 17 -8c160,-79 328,-167 493,-254 780,-410 1492,-784 2468,-646z"/>
 </g>
</svg>
